<svg xmlns="http://www.w3.org/2000/svg" fill="none" viewBox="0 0 301 301"><circle cx="150.09" cy="150.5" r="150" fill="#F1F8FA"/><mask id="a" width="154" height="221" x="73" y="38" maskUnits="userSpaceOnUse"><path fill="#fff" fill-rule="evenodd" d="M146.6 44.98a42.6 42.6 0 0123.25-3.48c7.94 1.13 16.32 5.1 20.24 13.98 2.32 5.27 3.15 13.56 3.48 22.76.34 9.53.16 21.25-.12 34.12l-.01.14c-.21 2.92-2.97 5.05-6.1 5.05-3.25 0-6.1-2.31-6.1-5.42v-.29l.1-7.5c.15-9.7.28-18.42.02-25.66-.17-4.7-.47-8.55-.88-11.59-.42-3.05-.95-5.21-1.55-6.57-1.58-3.59-5.24-5.98-10.78-6.77a30.54 30.54 0 00-16.4 2.44C127.93 67.41 119 87.81 119 99.45c-.09 6.94-.05 13.24-.02 18.63l.02 6.6c0 3.97-.09 7.47-.17 10.56a260.4 260.4 0 00-.1 10.49c.02 2.14.03 3.92-.02 5.29v2.14l-.02.6-.02.7v.25c-.12 3.02-2.92 5.25-6.11 5.25-3.2 0-6-2.23-6.1-5.25l.03.45-.04-.6-.02-.1-.02-.1v-1.78-.63c.01-.44.02-.88 0-1.44 0-.93 0-1.94.02-3.1l.02-5.7c.12-8.8.12-21.78.12-42.26 0-16.82 12.23-41.38 40.01-54.47zm-38.4 109.79v-.25-3.5-.52V147.28v-5.5c0-3.44.02-7.57.05-12.58.03-7.67.07-17.39.07-29.75 0-16.1 11.8-40.07 39.02-52.9 6.37-3 14.67-4.4 22.26-3.32 7.6 1.08 15.3 4.82 18.9 12.95 2.16 4.93 3 12.89 3.32 22.12.25 6.99.22 15.17.08 24.16v10.57c-.53 1.47-2.5 2.78-4.56 2.78-2.13 0-3.77-1.23-4.23-2.78v-1.77V108.18c-.03-4.49.02-8.78.05-12.84.06-6.14.12-11.75-.06-16.72-.17-4.74-.47-8.65-.9-11.76-.42-3.1-.97-5.46-1.67-7.04-1.91-4.33-6.24-6.96-12.13-7.8-5.9-.83-12.5.3-17.4 2.6-24.39 11.48-33.73 32.47-33.73 44.82-.1 7-.06 13.74-.03 19.17l.03 6.07c0 3.99-.1 7.49-.17 10.57a263.42 263.42 0 00-.11 8.94V145.8c.02 1.86.03 3.42 0 4.68v4.29c0 1.92-1.9 3.44-4.42 3.44s-4.35-1.53-4.37-3.44z" clip-rule="evenodd"/><path fill="#69797F" d="M169.85 41.5l.42-2.97-.42 2.97zm-23.26 3.48l-1.27-2.72 1.27 2.72zm43.5 10.5l-2.75 1.2 2.75-1.2zm3.48 22.76l-3 .1 3-.1zm-.12 34.12l3 .06-3-.06zm-.01.14l-2.95-.53-.03.15-.01.16 2.99.22zm-12.2-.66l3 .18v-.14l-3-.04zm.1-7.5l3 .04v-.04h-3zm0 0l-3-.05v.05h3zm.02-25.66l3-.1-3 .1zm-.88-11.59l2.97-.4-2.97.4zm-1.55-6.57l-2.74 1.21 2.74-1.2zm-10.78-6.77l.42-2.97-.42 2.97zm-16.4 2.44l-1.28-2.71 1.28 2.71zM119 99.46l3 .04v-.04h-3zm-.02 18.62l3-.02-3 .02zm-.15 17.16l3 .12v-.05l-3-.07zm0 0l-3-.13v.05l3 .08zm-.1 10.49h3v-.02l-3 .02zm0 0h-3v.02l3-.02zm-.02 5.29l-3-.1 3 .1zm0 1.11l-3 .05 3-.05zm0 .1h3v-.04l-3 .04zm0 0h-3v.05l3-.05zm0 .93l-3-.1 3 .1zm-.02.6l-3-.1 3 .1zm-.02.7l-3-.09 3 .09zm0 .07l3-.18-3 .18zm0 .18l-2.72-1.28-.27.56-.02.62 3 .1zm-12.22 0l3-.24-6 .35 3-.1zm.04.45l-3 .24 6-.44-3 .2zm-.04-.6l-3 .01v.18l3-.2zm-.02-.1l-2.95.53 2.95-.53zm-.02-.1h3-3zm0-.34h-3 3zm0-2.07l3 .03-3-.03zm0-1.44h-3v.07l3-.07zm.02-3.1l-3-.03 3 .02zm.02-5.7l-3-.04v.04h3zm1.74 12.8l-3-.01v.02h3zm0 .26h-3v.02l3-.02zm0-.39l3 .15V154.38h-3zm0-3.36h3v-6.8l-5.01 4.58 2.02 2.22zm0 0l-3 .07.16 6.58 4.86-4.43-2.02-2.22zm0-.52l-3-.01h3zm0-.55h-3v.07l3-.07zm0-2.67h3-3zm.05-18.08l-3-.01 3 .01zm39.09-82.64l-1.28-2.72 1.28 2.72zm22.26-3.33l-.42 2.97.42-2.97zm18.9 12.95l-2.75 1.21 2.74-1.2zm3.32 22.12l3-.1-3 .1zm.08 24.16l-3-.05-.05 3.05h3.05v-3zm0 0h3v-3h-3v3zm0 10.57h-3v3h3v-3zm0 0l2.83 1 1.41-4h-4.24v3zm0 0l-2.83-1-.17.49v.51h3zm0 0v3h3v-3h-3zm0 0v-3h-2.1l-.72 1.98 2.82 1.03zm-8.8 0v-3h-4l1.13 3.86 2.88-.86zm.01 0v3h3v-3h-3zm0-1.77h3v-2.93l-2.93-.07-.07 3zm0 0l-2.88-.84-1.1 3.75 3.91.1.07-3zm0-.01l2.88.86.12-.42v-.44h-3zm0-3.07h3v-6.56l-4.96 4.29 1.96 2.27zm0 0l-3 .02.03 6.52 4.93-4.27-1.96-2.27zm.05-12.84l3 .03v-.03h-3zm0 0l-3-.03v.03h3zm-.06-16.72l-3 .1 3-.1zm-.9-11.76l2.98-.4-2.97.4zm-1.67-7.04l-2.75 1.2 2.75-1.2zm-12.13-7.8l-.43 2.97.43-2.97zm-17.4 2.6l1.28 2.7-1.28-2.7zm-33.73 44.82l3 .04v-.04h-3zm-.03 19.17l3-.02-3 .02zm-.14 16.64l3 .07-3-.07zm-.11 8.94l-3 .02.02 2.98h2.98v-3zm0 0h3v-3h-3v3zm0 .99h-3v.02l3-.02zm0 .62l-3 .02v.01l3-.03zm0 0l3-.03v-.01l-3 .04zm0 4.68l-3-.07v.07h3zm0 4.29v3h3v-3h-3zm0 0v-3h-3v3h3zm53.28-116.24a45.6 45.6 0 00-24.95 3.73l2.55 5.43a39.6 39.6 0 0121.56-3.22l.84-5.94zm22.56 15.74c-4.49-10.18-14.03-14.53-22.56-15.74l-.84 5.94c7.34 1.05 14.56 4.62 17.91 12.22l5.5-2.42zm3.73 23.86c-.32-9.14-1.14-17.99-3.73-23.86l-5.49 2.42c2.06 4.67 2.9 12.4 3.23 21.65l6-.21zm-.1 34.3c.26-12.86.45-24.67.1-34.3l-6 .21c.35 9.44.17 21.08-.1 33.96l6 .12zm-.07.6c.04-.2.06-.4.06-.6l-6-.13c0-.11.02-.22.04-.33l5.9 1.05zm-9.05 7.52c4.33 0 8.74-3 9.1-7.84l-6-.43c-.07 1-1.16 2.27-3.1 2.27v6zm-9.1-8.42c0 5.17 4.62 8.42 9.1 8.42v-6c-2.02 0-3.1-1.37-3.1-2.42h-6zm.01-.46l-.01.46h6v-.11l-5.99-.35zm.1-7.38l-.1 7.52 6 .07.1-7.5-6-.09zm0 .05h6-6zm.01-25.55c.26 7.15.13 15.78-.01 25.5l6 .1c.14-9.68.27-18.48 0-25.81l-5.99.21zm-.86-11.29c.4 2.9.7 6.65.86 11.3l6-.22c-.17-4.76-.48-8.73-.91-11.9l-5.95.82zm-1.31-5.77c.43.97.9 2.8 1.31 5.77l5.95-.81c-.43-3.13-1-5.63-1.77-7.38l-5.5 2.42zm-8.46-5c4.91.69 7.43 2.68 8.46 5l5.49-2.42c-2.15-4.86-6.95-7.65-13.1-8.53l-.85 5.94zm-14.7 2.18a27.56 27.56 0 0114.7-2.19l.84-5.94c-6.14-.87-13 .3-18.1 2.7l2.56 5.43zM122 99.45c0-10.41 8.19-29.79 31.02-40.54l-2.56-5.43C125.66 65.17 116 86.58 116 99.45h6zm0 0h-6 6zm-.02 18.61c-.03-5.39-.07-11.66.02-18.56l-6-.08c-.1 6.96-.05 13.29-.02 18.68l6-.03zm.02 6.62l-.02-6.62-6 .04.02 6.58h6zm-.17 10.63c.08-3.08.17-6.62.17-10.63h-6c0 3.93-.09 7.4-.17 10.48l6 .15zm0 .05l-6-.25 6 .25zm-.11 6.38c0-1.88.05-4 .11-6.43l-6-.15c-.06 2.4-.11 4.6-.11 6.58h6zm.01 3.97l-.01-3.97h-6l.01 4 6-.03zm0 .02h-6 6zm-.02 5.4c.05-1.45.04-3.3.02-5.42l-6 .04c.02 2.17.03 3.88-.01 5.17l6 .2zm0 .96v-.97l-6-.2v1.26l6-.09zm0 .1v-.1l-6 .09v.1l6-.09zm0 .04h-6 6zm0 1.04c.02-.34 0-.77 0-1.08l-6 .09v.78l6 .21zm-.02.6l.02-.6-6-.21-.01.6 6 .21zm-.02.68l.02-.68-6-.2-.02.7 6 .18zm0-.2v.2l-6-.18a3.5 3.5 0 000 .35l6-.37zm-.3 1.64c.29-.6.3-1.14.3-1.27v-.37l-6 .37v-.18a2.66 2.66 0 01.28-1.1l5.43 2.55zm-8.81 6.97c4.4 0 8.92-3.14 9.1-8.14l-6-.21c-.03 1.02-1.12 2.34-3.1 2.34v6zm-9.1-8.14c.17 5 4.7 8.14 9.1 8.14v-6c-1.98 0-3.07-1.33-3.11-2.35l-6 .2zm6.02.1l-.04-.45-5.98.48.04.45 5.98-.48zm-6.02-.17l.03.6 6-.38-.05-.6-5.98.38zm.02.24V154.98l-.01-.08-.01-.1a2.7 2.7 0 01-.01-.23l6-.03-.01-.23-.01-.1a8.37 8.37 0 00-.02-.15l-.01-.05-.02-.08-5.9 1.06zm-.07-.64l.01.25.01.1.01.08.01.06.01.06.02.09 5.9-1.06a5.61 5.61 0 01.01.08l.01.1a2.59 2.59 0 01.01.24h-6zm0-.33v.33h6v-.33h-6zm0-1.44v1.44h6v-1.44h-6zm0-.66v.67h6v-.61l-6-.06zm0-1.34c.02.5.01.9 0 1.34l6 .06c.01-.44.02-.93 0-1.54l-6 .14zm.02-3.2l-.02 3.13h6c0-.91 0-1.92.02-3.09l-6-.04zm.02-5.67l-.02 5.67 6 .04.02-5.71h-6zm.12-42.26c0 20.5 0 33.45-.12 42.22l6 .08c.12-8.82.12-21.83.12-42.3h-6zm41.74-57.19c-28.76 13.55-41.74 39.12-41.74 57.19h6c0-15.57 11.47-39.12 38.3-51.76l-2.56-5.43zM105.2 154.52v.25h6v-.25h-6zm.01-.28v.26l6 .03-6-.3zm0-3.22v3.36h6v-3.36h-6zm5.01 2.22l-4.03-4.44 4.03 4.44zm-5.02-2.75v.6l6-.14v-.01-.12-.31l-6-.02zm0-.47v.47l6 .01v-.62l-6 .14zm0-2.74v2.67h6v-2.67h-6zm0-5.5v5.5h6v-5.5h-6zm.05-12.6c-.03 5.01-.05 9.15-.05 12.6h6c0-3.43.02-7.56.05-12.56l-6-.03zm.07-29.73c0 12.36-.04 22.07-.07 29.74l6 .03c.03-7.68.07-17.4.07-29.77h-6zm40.74-55.6c-28.2 13.27-40.74 38.26-40.74 55.6h6c0-14.84 11.04-37.81 37.3-50.18l-2.56-5.43zm23.96-3.59a43.85 43.85 0 00-23.96 3.58l2.56 5.43a37.86 37.86 0 0120.56-3.07l.84-5.94zm21.22 14.71c-4.16-9.42-13.03-13.55-21.22-14.71l-.84 5.94c7 1 13.54 4.34 16.57 11.2l5.49-2.43zm3.58 23.22c-.33-9.17-1.15-17.7-3.58-23.22l-5.5 2.42c1.91 4.33 2.75 11.72 3.08 21.02l6-.22zm.08 24.31c.14-8.99.17-17.24-.08-24.3l-6 .2c.25 6.92.22 15.04.08 24l6 .1zm-3 2.96v-6 6zm-3-3v10.57h6v-10.57h-6zm3 13.57v-6 6zm-2.83-4v-.02h.01l-.01.02 5.66 2v.02h-.01v-.02l-5.65-2zm-.17 1h6-6zm3-3v6-6zm-2.82 1.98c.02-.07-.06.15-.48.42-.4.24-.85.38-1.26.38v6c1.65 0 3.2-.52 4.44-1.3a7.05 7.05 0 002.94-3.45l-5.64-2.05zm-1.74.8c-1.03 0-1.33-.56-1.35-.63l-5.76 1.7c.9 3.03 3.87 4.93 7.11 4.93v-6zm-4.23 3.22v-6 6zm3-3v-1.77h-6v1.77h6zm-3.07 1.23l.14-6-.14 6zm-2.8-3.87v.03l5.75 1.7v-.01l-5.75-1.72zm5.87.86v-3.07h-6v3.07h6zm-1.04-.8l-3.92-4.54 3.92 4.54zm-4.9-15.14c-.04 4.06-.09 8.37-.06 12.89l6-.03c-.03-4.47.02-8.74.05-12.8l-6-.06zm0 .03h6-6zm-.07-16.61c.18 4.88.13 10.42.07 16.58l6 .06c.06-6.12.11-11.8-.07-16.86l-6 .22zm-.87-11.47c.41 2.98.7 6.79.87 11.47l6-.22c-.17-4.8-.48-8.81-.92-12.06l-5.95.81zm-1.44-6.23c.52 1.2 1.03 3.22 1.44 6.23l5.95-.8c-.44-3.19-1.03-5.88-1.9-7.85l-5.5 2.42zm-9.82-6.04c5.28.75 8.47 2.98 9.81 6.04l5.5-2.42c-2.48-5.6-7.95-8.63-14.46-9.56l-.85 5.94zm-15.69 2.34a29.3 29.3 0 0115.7-2.34l.84-5.94c-6.49-.92-13.7.3-19.1 2.85l2.56 5.43zm-32.01 42.11c0-11.12 8.61-31.09 32.01-42.11l-2.56-5.43c-25.38 11.96-35.45 33.96-35.45 47.54h6zm-.03 19.15c-.03-5.43-.07-12.14.03-19.1l-6-.09c-.1 7.04-.06 13.8-.03 19.22l6-.03zm.03 6.09l-.03-6.09-6 .03.03 6.06h6zm-.17 10.64c.08-3.07.17-6.6.17-10.64h-6c0 3.95-.1 7.41-.17 10.49l6 .15zm-.12 6.42c0-1.88.05-4 .12-6.42l-6-.15c-.06 2.4-.12 4.6-.12 6.57h6zm0 2.43v-2.43h-6v2.47l6-.04zM117 141.2h-.01v6-6zm3 3.99v-.99h-6v.99h6zm0 .6v-.62l-6 .04v.62l6-.04zm0-.02l-6 .07 6-.07zm0 4.79c.02-1.31.01-2.93 0-4.78l-6 .05c.01 1.88.02 3.39 0 4.6l6 .13zm0 4.22v-4.29h-6v4.29h6zm-3.02 3l.02-6-.02 6zm-4.41 3.44c3.47 0 7.42-2.23 7.42-6.44h-6c0-.1.06-.06-.12.08-.2.15-.63.36-1.3.36v6zm-7.37-6.42c.03 4.12 3.83 6.42 7.37 6.42v-6a2 2 0 01-1.25-.34.45.45 0 01-.12-.13v.01l-6 .04z"/><path fill="#69797F" fill-rule="evenodd" d="M182.78 90.27l-66.36 38.75v9.27l66.79-39h-.43v-9.02zm7.09 9.02h1.7V91l32.65 19.33a4 4 0 01-.02 6.9l-108.58 63.4a4 4 0 01-4.06-.02l-35.6-21.08a4 4 0 01.01-6.9l31.67-18.48v9.13h.23l-21.99 12.84 27.73 16.41 100.68-58.78-24.42-14.46z" clip-rule="evenodd"/><path stroke="#69797F" stroke-linejoin="round" stroke-width="7" d="M77.17 233.4l.77-77.25 35.83 20.91-.71 76.98-35.89-20.64z"/><path stroke="#69797F" stroke-linejoin="round" stroke-width="8" d="M113.11 254.06l.55-77 108.58-63.23v77.2L113.1 254.07z"/><path fill="#69797F" stroke="#69797F" stroke-linejoin="round" stroke-width="2" d="M106.55 179.92l-22.34-12.53a1 1 0 00-1.49.83l-.05 1.21a1 1 0 00.51.92l22.4 12.52a1 1 0 001.48-.87v-1.2a1 1 0 00-.5-.88zM106.55 188.4l-22.34-12.54a1 1 0 00-1.49.83l-.05 1.22a1 1 0 00.51.91l22.4 12.53a1 1 0 001.48-.88v-1.2a1 1 0 00-.5-.88zM106.55 196.87l-22.34-12.53a1 1 0 00-1.49.83l-.05 1.2a1 1 0 00.51.92l22.4 12.53a1 1 0 001.48-.87v-1.2a1 1 0 00-.5-.88zM106.55 205.34l-22.34-12.53a1 1 0 00-1.49.83l-.05 1.21a1 1 0 00.51.92l22.4 12.52a1 1 0 001.48-.87v-1.2a1 1 0 00-.5-.88zM106.55 213.82l-22.34-12.53a1 1 0 00-1.49.83l-.05 1.2a1 1 0 00.51.92l22.4 12.53a1 1 0 001.48-.87v-1.21a1 1 0 00-.5-.87zM106.55 222.29l-22.34-12.53a1 1 0 00-1.49.83l-.05 1.21a1 1 0 00.51.92l22.4 12.52a1 1 0 001.48-.87v-1.2a1 1 0 00-.5-.88zM106.68 230.76l-22.34-12.53a1 1 0 00-1.5.83l-.04 1.22a1 1 0 00.5.91l22.4 12.53a1 1 0 001.49-.88v-1.2a1 1 0 00-.51-.88zM106.68 239.24L84.34 226.7a1 1 0 00-1.5.83l-.04 1.2a1 1 0 00.5.92l22.4 12.53a1 1 0 001.49-.87v-1.2a1 1 0 00-.51-.88z"/><path fill="#69797F" stroke="#69797F" stroke-width="1.5" d="M125.26 208.04l8.12-2.1-5.62 11.14-.47.92.62.1 4.85.86.55.1.35-.84 4.49-10.77 4.63 5.81.36.46.56-.76 4.78-6.57.58-.8-.46-.38-5.52-4.47 8.19-7.33.66-.6-.22-.62-1.87-5.1-.23-.62-.64.68-7.62 8.06.56-10.7.04-.83-.7.4-5.95 3.44-.7.4.06.78.7 9.75-7.94.81-.63.07-.22.88-1.76 7.12-.22.88.67-.17zM155.54 190.11l8.12-2.1-5.62 11.14-.47.92.62.11 4.84.85.56.1.34-.84 4.5-10.77 4.62 5.82.37.45.55-.76 4.78-6.57.59-.8-.46-.38-5.52-4.47 8.19-7.32.66-.6-.23-.63-1.86-5.09-.23-.63-.64.68-7.62 8.07.55-10.7.05-.84-.7.4-5.96 3.45-.7.4.06.77.72 9.75-7.95.82-.64.06-.21.88-1.76 7.12-.22.88.67-.17zM185.82 172.9l8.12-2.09-5.63 11.13-.46.92.62.11 4.84.85.55.1.35-.84 4.5-10.77 4.62 5.82.36.46.56-.77 4.78-6.57.59-.8-.46-.37-5.53-4.48 8.2-7.32.66-.6-.23-.62-1.86-5.1-.23-.63-.64.68-7.62 8.07.55-10.7.04-.83-.7.4-5.95 3.44-.7.4.06.78.71 9.74-7.94.82-.64.06-.22.88-1.75 7.12-.22.89.67-.18z"/></mask><g mask="url(#a)"><path fill="#AFC7CF" d="M25.88 28.17h247.81v247.81H25.88z"/></g></svg>