<svg width="301" height="301" viewBox="0 0 301 301" fill="none" xmlns="http://www.w3.org/2000/svg">
<circle cx="150.087" cy="150.5" r="150" fill="#F1F8FA"/>
<mask id="mask0" mask-type="alpha" maskUnits="userSpaceOnUse" x="73" y="38" width="154" height="221">
<path fill-rule="evenodd" clip-rule="evenodd" d="M146.594 44.9779C153.263 41.8364 161.91 40.3747 169.848 41.5023C177.785 42.6297 186.169 46.5917 190.087 55.4787C192.412 60.7514 193.237 69.037 193.566 78.2365C193.908 87.7711 193.725 99.4924 193.452 112.361C193.451 112.406 193.447 112.451 193.439 112.496C193.228 115.417 190.47 117.554 187.344 117.554C184.09 117.554 181.236 115.239 181.236 112.134C181.236 112.036 181.239 111.939 181.245 111.843C181.276 109.284 181.313 106.78 181.348 104.337V104.337C181.49 94.6425 181.617 85.9234 181.358 78.6844C181.19 73.9811 180.891 70.1275 180.476 67.0936C180.059 64.0441 179.532 61.8805 178.933 60.5219C177.349 56.9312 173.687 54.5382 168.151 53.7518C162.608 52.9644 156.335 54.0318 151.748 56.193C127.928 67.4143 119.013 87.8116 119.013 99.4464V99.4582C118.92 106.392 118.956 112.691 118.987 118.083C119 120.467 119.013 122.673 119.013 124.68C119.013 128.652 118.923 132.154 118.844 135.235L118.844 135.235C118.781 137.655 118.726 139.815 118.726 141.739C118.726 143.179 118.735 144.511 118.744 145.727V145.727C118.759 147.872 118.772 149.653 118.725 151.019C118.714 151.361 118.718 151.75 118.723 152.134L118.725 152.234V152.234C118.729 152.57 118.734 152.909 118.725 153.164L118.704 153.767C118.693 154.062 118.686 154.288 118.681 154.46C118.68 154.481 118.682 154.507 118.683 154.534C118.687 154.598 118.692 154.671 118.671 154.714C118.564 157.728 115.758 159.955 112.567 159.955C109.375 159.955 106.567 157.727 106.462 154.711L106.498 155.16L106.459 154.559C106.459 154.555 106.45 154.506 106.441 154.456C106.432 154.406 106.423 154.355 106.423 154.351L106.423 154.022V152.585C106.423 152.368 106.425 152.16 106.427 151.948C106.431 151.515 106.436 151.068 106.423 150.512C106.423 149.584 106.429 148.572 106.437 147.402C106.447 145.843 106.459 144.003 106.459 141.707C106.579 132.915 106.579 119.935 106.579 99.4464C106.579 82.6324 118.807 58.0686 146.594 44.9779ZM108.204 154.77V154.517C108.204 154.473 108.205 154.428 108.208 154.384V151.016L108.204 151.019C108.202 150.959 108.203 150.729 108.204 150.496C108.205 150.258 108.205 150.017 108.204 149.953L108.204 147.283C108.203 145.86 108.203 144.136 108.203 141.771C108.203 138.34 108.222 134.206 108.245 129.202C108.28 121.531 108.324 111.814 108.324 99.4464C108.324 83.3591 120.114 59.3818 147.338 46.5566C153.707 43.5561 162.011 42.1518 169.602 43.23C177.193 44.3083 184.902 48.0451 188.491 56.1828C190.662 61.1062 191.492 69.0652 191.822 78.2989C192.072 85.2897 192.039 93.475 191.896 102.457H191.899V113.033H191.899C191.899 113.033 191.899 113.033 191.899 113.033V113.036H191.898C191.368 114.495 189.394 115.809 187.344 115.809C185.207 115.809 183.566 114.579 183.108 113.033H183.112V111.264L183.108 111.264C183.11 111.259 183.111 111.254 183.112 111.25V108.177C183.11 108.179 183.108 108.181 183.106 108.183C183.084 103.693 183.126 99.3999 183.165 95.3379V95.3374C183.225 89.199 183.28 83.5881 183.102 78.622C182.933 73.8848 182.631 69.9687 182.205 66.8571C181.782 63.761 181.229 61.4032 180.53 59.8178C178.62 55.4874 174.293 52.8617 168.396 52.024C162.506 51.1874 155.891 52.312 151.004 54.6143C126.613 66.1049 117.271 87.0905 117.268 99.4404C117.173 106.446 117.212 113.179 117.243 118.607C117.256 120.888 117.268 122.937 117.268 124.68C117.268 128.67 117.178 132.169 117.098 135.246C117.036 137.66 116.981 139.813 116.981 141.739C116.981 142.6 116.984 143.417 116.988 144.19H116.995V145.179L116.999 145.796L116.999 145.797C117.012 147.663 117.024 149.223 116.995 150.48V154.77L116.986 154.77C116.986 156.688 115.096 158.209 112.567 158.209C110.046 158.209 108.215 156.68 108.204 154.77Z" fill="white"/>
<path d="M169.848 41.5023L170.27 38.5321L169.848 41.5023ZM146.594 44.9779L145.316 42.264V42.264L146.594 44.9779ZM190.087 55.4787L187.342 56.6891V56.6891L190.087 55.4787ZM193.566 78.2365L190.568 78.3438L193.566 78.2365ZM193.452 112.361L196.452 112.425V112.424L193.452 112.361ZM193.439 112.496L190.486 111.969L190.458 112.123L190.447 112.279L193.439 112.496ZM181.245 111.843L184.24 112.017L184.244 111.948L184.244 111.88L181.245 111.843ZM181.348 104.337L184.348 104.381L184.348 104.359V104.337H181.348ZM181.348 104.337L178.349 104.293L178.348 104.315V104.337H181.348ZM181.358 78.6844L184.356 78.5772L181.358 78.6844ZM180.476 67.0936L183.449 66.687L180.476 67.0936ZM178.933 60.5219L176.188 61.7323V61.7323L178.933 60.5219ZM168.151 53.7518L168.572 50.7816L168.151 53.7518ZM151.748 56.193L150.469 53.4791L151.748 56.193ZM119.013 99.4582L122.013 99.4986L122.013 99.4784V99.4582H119.013ZM118.987 118.083L121.987 118.065L118.987 118.083ZM118.844 135.235L121.841 135.36L121.842 135.336L121.843 135.312L118.844 135.235ZM118.844 135.235L115.846 135.11L115.845 135.134L115.845 135.158L118.844 135.235ZM118.744 145.727H121.744V145.716L121.744 145.705L118.744 145.727ZM118.744 145.727H115.744V145.737L115.744 145.748L118.744 145.727ZM118.725 151.019L115.727 150.917V150.917L118.725 151.019ZM118.723 152.134L115.723 152.176L115.723 152.177L118.723 152.134ZM118.725 152.234H121.725V152.212L121.724 152.191L118.725 152.234ZM118.725 152.234H115.725V152.255L115.725 152.277L118.725 152.234ZM118.725 153.164L115.727 153.057L115.727 153.058L118.725 153.164ZM118.704 153.767L115.706 153.66L115.706 153.661L118.704 153.767ZM118.681 154.46L115.682 154.373L115.682 154.374L118.681 154.46ZM118.683 154.534L121.678 154.353L121.678 154.353L118.683 154.534ZM118.671 154.714L115.958 153.434L115.695 153.992L115.673 154.607L118.671 154.714ZM106.462 154.711L109.452 154.47L103.464 154.816L106.462 154.711ZM106.498 155.16L103.508 155.401L109.492 154.965L106.498 155.16ZM106.459 154.559L103.459 154.573L103.459 154.663L103.465 154.754L106.459 154.559ZM106.441 154.456L103.488 154.986L103.488 154.986L106.441 154.456ZM106.423 154.351H109.423V154.351L106.423 154.351ZM106.423 154.022H103.423V154.022L106.423 154.022ZM106.427 151.948L109.427 151.978L106.427 151.948ZM106.423 150.512L103.423 150.513L103.423 150.547L103.424 150.582L106.423 150.512ZM106.437 147.402L103.437 147.382L106.437 147.402ZM106.459 141.707L103.46 141.666L103.459 141.686L103.459 141.706L106.459 141.707ZM108.204 154.517L105.204 154.499L105.204 154.508V154.517H108.204ZM108.204 154.77H105.204V154.779L105.204 154.788L108.204 154.77ZM108.208 154.384L111.204 154.534L111.208 154.459V154.384H108.208ZM108.208 151.016H111.208V144.225L106.187 148.798L108.208 151.016ZM108.204 151.019L105.205 151.087L105.355 157.672L110.224 153.237L108.204 151.019ZM108.204 150.496L105.204 150.487L108.204 150.496ZM108.204 149.953L105.204 149.953L105.204 149.988L105.205 150.023L108.204 149.953ZM108.204 147.283L111.204 147.282V147.282L108.204 147.283ZM108.245 129.202L105.245 129.189L108.245 129.202ZM147.338 46.5566L146.06 43.8427L146.06 43.8427L147.338 46.5566ZM169.602 43.23L169.18 46.2002L169.602 43.23ZM188.491 56.1828L185.746 57.3933V57.3933L188.491 56.1828ZM191.822 78.2989L194.82 78.1916V78.1916L191.822 78.2989ZM191.896 102.457L188.896 102.408L188.847 105.457H191.896V102.457ZM191.899 102.457H194.899V99.4565H191.899V102.457ZM191.899 113.033H188.899V116.033H191.899V113.033ZM191.899 113.033L194.728 114.031L196.14 110.033H191.899V113.033ZM191.899 113.033L189.07 112.035L188.899 112.52V113.033H191.899ZM191.899 113.036V116.036H194.899V113.036H191.899ZM191.898 113.036V110.036H189.797L189.079 112.011L191.898 113.036ZM183.108 113.033V110.033H179.091L180.232 113.885L183.108 113.033ZM183.112 113.033V116.033H186.112V113.033H183.112ZM183.112 111.264H186.112V108.33L183.18 108.264L183.112 111.264ZM183.108 111.264L180.231 110.415L179.122 114.175L183.041 114.263L183.108 111.264ZM183.112 111.25L185.987 112.109L186.112 111.688V111.25H183.112ZM183.112 108.177H186.112V101.625L181.152 105.906L183.112 108.177ZM183.106 108.183L180.106 108.197L180.137 114.724L185.07 110.45L183.106 108.183ZM183.165 95.3379L186.165 95.3672L186.165 95.3525V95.3379H183.165ZM183.165 95.3374L180.166 95.3081L180.165 95.3227V95.3374H183.165ZM183.102 78.622L180.104 78.7293V78.7293L183.102 78.622ZM182.205 66.8571L185.178 66.4505V66.4505L182.205 66.8571ZM180.53 59.8178L177.785 61.0282V61.0282L180.53 59.8178ZM168.396 52.024L167.974 54.9942L168.396 52.024ZM151.004 54.6143L152.282 57.3282H152.282L151.004 54.6143ZM117.268 99.4404L120.268 99.4809L120.268 99.461L120.268 99.4412L117.268 99.4404ZM117.243 118.607L120.243 118.59L117.243 118.607ZM117.098 135.246L120.097 135.324L117.098 135.246ZM116.988 144.19L113.988 144.207L114.005 147.19H116.988V144.19ZM116.995 144.19H119.995V141.19H116.995V144.19ZM116.995 145.179H113.995V145.19L113.995 145.2L116.995 145.179ZM116.999 145.796L113.999 145.818L113.999 145.826L113.999 145.834L116.999 145.796ZM116.999 145.797L119.999 145.775L119.999 145.767L119.999 145.759L116.999 145.797ZM116.995 150.48L113.995 150.411L113.995 150.446V150.48H116.995ZM116.995 154.77L116.986 157.77L119.995 157.778V154.77H116.995ZM116.986 154.77L116.995 151.77L113.986 151.761V154.77H116.986ZM170.27 38.5321C161.736 37.3199 152.499 38.8801 145.316 42.264L147.873 47.6918C154.027 44.7927 162.084 43.4296 169.426 44.4724L170.27 38.5321ZM192.832 54.2683C188.345 44.0922 178.801 39.7439 170.27 38.5321L169.426 44.4724C176.769 45.5155 183.992 49.0912 187.342 56.6891L192.832 54.2683ZM196.564 78.1292C196.237 68.9878 195.422 60.1413 192.832 54.2683L187.342 56.6891C189.403 61.3615 190.237 69.0863 190.568 78.3438L196.564 78.1292ZM196.452 112.424C196.724 99.5675 196.909 87.7625 196.564 78.1292L190.568 78.3438C190.906 87.7797 190.726 99.4174 190.453 112.298L196.452 112.424ZM196.393 113.022C196.428 112.825 196.448 112.626 196.452 112.425L190.453 112.298C190.455 112.187 190.466 112.078 190.486 111.969L196.393 113.022ZM187.344 120.554C191.666 120.554 196.081 117.553 196.431 112.712L190.447 112.279C190.374 113.281 189.275 114.554 187.344 114.554V120.554ZM178.236 112.134C178.236 117.295 182.864 120.554 187.344 120.554V114.554C185.317 114.554 184.236 113.182 184.236 112.134H178.236ZM178.25 111.668C178.241 111.823 178.236 111.978 178.236 112.134H184.236C184.236 112.094 184.237 112.055 184.24 112.017L178.25 111.668ZM178.349 104.294C178.313 106.736 178.276 109.243 178.245 111.806L184.244 111.88C184.276 109.325 184.312 106.824 184.348 104.381L178.349 104.294ZM178.348 104.337V104.337H184.348V104.337H178.348ZM178.36 78.7917C178.616 85.939 178.491 94.5739 178.349 104.293L184.348 104.381C184.489 94.7111 184.619 85.9079 184.356 78.5772L178.36 78.7917ZM177.504 67.5001C177.901 70.4005 178.194 74.1466 178.36 78.7917L184.356 78.5772C184.186 73.8156 183.882 69.8545 183.449 66.687L177.504 67.5001ZM176.188 61.7323C176.615 62.7007 177.098 64.5304 177.504 67.5001L183.449 66.687C183.021 63.5578 182.449 61.0602 181.678 59.3115L176.188 61.7323ZM167.729 56.722C172.642 57.4199 175.164 59.4114 176.188 61.7323L181.678 59.3115C179.535 54.451 174.732 51.6565 168.572 50.7816L167.729 56.722ZM153.026 58.9069C157.099 56.9882 162.782 56.0192 167.729 56.722L168.572 50.7816C162.434 49.9096 155.571 51.0754 150.469 53.4791L153.026 58.9069ZM122.013 99.4464C122.013 89.0396 130.196 69.6621 153.026 58.9069L150.469 53.4791C125.66 65.1666 116.013 86.5837 116.013 99.4464H122.013ZM122.013 99.4582V99.4464H116.013V99.4582H122.013ZM121.987 118.065C121.956 112.672 121.92 106.4 122.013 99.4986L116.013 99.4177C115.919 106.384 115.956 112.709 115.987 118.1L121.987 118.065ZM122.013 124.68C122.013 122.663 122 120.447 121.987 118.065L115.987 118.1C116 120.486 116.013 122.684 116.013 124.68H122.013ZM121.843 135.312C121.922 132.233 122.013 128.695 122.013 124.68H116.013C116.013 128.609 115.924 132.075 115.845 135.158L121.843 135.312ZM121.841 135.36L121.841 135.36L115.846 135.11L115.846 135.11L121.841 135.36ZM121.726 141.739C121.726 139.861 121.78 137.743 121.843 135.312L115.845 135.158C115.783 137.567 115.726 139.768 115.726 141.739H121.726ZM121.744 145.705C121.735 144.489 121.726 143.167 121.726 141.739H115.726C115.726 143.191 115.735 144.533 115.744 145.748L121.744 145.705ZM121.744 145.727V145.727H115.744V145.727H121.744ZM121.723 151.121C121.773 149.679 121.759 147.825 121.744 145.705L115.744 145.748C115.759 147.918 115.771 149.627 115.727 150.917L121.723 151.121ZM121.723 152.091C121.717 151.7 121.715 151.38 121.723 151.121L115.727 150.917C115.712 151.341 115.718 151.8 115.723 152.176L121.723 152.091ZM121.724 152.191L121.723 152.091L115.723 152.177L115.725 152.277L121.724 152.191ZM121.725 152.234V152.234H115.725V152.234H121.725ZM121.723 153.272C121.736 152.925 121.729 152.499 121.724 152.19L115.725 152.277C115.73 152.642 115.733 152.894 115.727 153.057L121.723 153.272ZM121.702 153.874L121.723 153.271L115.727 153.058L115.706 153.66L121.702 153.874ZM121.679 154.547C121.684 154.385 121.691 154.167 121.702 153.872L115.706 153.661C115.695 153.957 115.687 154.191 115.682 154.373L121.679 154.547ZM121.678 154.353C121.677 154.332 121.678 154.348 121.678 154.368C121.679 154.381 121.68 154.403 121.68 154.431C121.681 154.458 121.681 154.498 121.679 154.547L115.682 154.374C115.679 154.486 115.682 154.577 115.684 154.621C115.686 154.667 115.688 154.709 115.689 154.716L121.678 154.353ZM121.385 155.994C121.669 155.392 121.681 154.849 121.685 154.72C121.691 154.529 121.678 154.356 121.678 154.353L115.689 154.716C115.692 154.776 115.684 154.672 115.688 154.544C115.69 154.471 115.697 154.339 115.725 154.174C115.751 154.017 115.811 153.746 115.958 153.434L121.385 155.994ZM112.567 162.955C116.969 162.955 121.492 159.825 121.67 154.821L115.673 154.607C115.637 155.632 114.546 156.955 112.567 156.955V162.955ZM103.464 154.816C103.639 159.823 108.163 162.955 112.567 162.955V156.955C110.586 156.955 109.496 155.631 109.46 154.606L103.464 154.816ZM109.488 154.919L109.452 154.47L103.471 154.952L103.508 155.401L109.488 154.919ZM103.465 154.754L103.504 155.355L109.492 154.965L109.452 154.364L103.465 154.754ZM103.488 154.986C103.493 155.013 103.496 155.031 103.498 155.042C103.499 155.049 103.498 155.043 103.496 155.032C103.496 155.028 103.493 155.008 103.489 154.982C103.487 154.969 103.483 154.94 103.478 154.902C103.476 154.883 103.473 154.85 103.469 154.809C103.467 154.787 103.465 154.758 103.463 154.723C103.461 154.69 103.459 154.637 103.459 154.573L109.459 154.545C109.458 154.428 109.451 154.338 109.448 154.308C109.445 154.266 109.441 154.232 109.439 154.213C109.434 154.174 109.43 154.143 109.428 154.129C109.424 154.099 109.42 154.074 109.418 154.064C109.414 154.041 109.41 154.019 109.408 154.007C109.404 153.98 109.398 153.948 109.394 153.926L103.488 154.986ZM103.423 154.351C103.423 154.472 103.43 154.565 103.433 154.596C103.436 154.639 103.44 154.674 103.442 154.694C103.447 154.733 103.451 154.765 103.453 154.779C103.458 154.81 103.462 154.835 103.464 154.845C103.467 154.869 103.471 154.891 103.473 154.903C103.478 154.931 103.484 154.963 103.488 154.986L109.394 153.926C109.389 153.898 109.386 153.881 109.384 153.869C109.382 153.862 109.383 153.868 109.385 153.879C109.386 153.883 109.389 153.903 109.393 153.93C109.395 153.943 109.399 153.973 109.404 154.011C109.406 154.031 109.409 154.065 109.413 154.107C109.415 154.129 109.417 154.159 109.419 154.196C109.421 154.23 109.423 154.284 109.423 154.351H103.423ZM103.423 154.022L103.423 154.351L109.423 154.351L109.423 154.022L103.423 154.022ZM103.423 152.585V154.022H109.423V152.585H103.423ZM103.427 151.919C103.425 152.128 103.423 152.351 103.423 152.585H109.423C109.423 152.386 109.425 152.192 109.427 151.978L103.427 151.919ZM103.424 150.582C103.435 151.083 103.431 151.486 103.427 151.919L109.427 151.978C109.431 151.544 109.436 151.054 109.422 150.443L103.424 150.582ZM103.437 147.382C103.429 148.55 103.423 149.573 103.423 150.513L109.423 150.512C109.423 149.596 109.429 148.594 109.437 147.421L103.437 147.382ZM103.459 141.706C103.459 143.992 103.447 145.824 103.437 147.382L109.437 147.421C109.447 145.862 109.459 144.014 109.459 141.707L103.459 141.706ZM103.579 99.4464C103.579 119.946 103.579 132.9 103.46 141.666L109.459 141.748C109.579 132.93 109.579 119.924 109.579 99.4464H103.579ZM145.316 42.264C116.559 55.8112 103.579 81.3829 103.579 99.4464H109.579C109.579 83.8819 121.054 60.3261 147.873 47.6918L145.316 42.264ZM105.204 154.517V154.77H111.204V154.517H105.204ZM105.211 154.235C105.207 154.322 105.204 154.41 105.204 154.499L111.204 154.535L111.204 154.534L105.211 154.235ZM105.208 151.016V154.384H111.208V151.016H105.208ZM110.224 153.237L110.228 153.234L106.187 148.798L106.184 148.801L110.224 153.237ZM105.204 150.487C105.203 150.684 105.202 150.977 105.205 151.087L111.203 150.951C111.203 150.968 111.203 150.97 111.203 150.935C111.203 150.907 111.203 150.871 111.203 150.825C111.203 150.735 111.204 150.623 111.204 150.505L105.204 150.487ZM105.205 150.023C105.204 150.006 105.204 150.005 105.205 150.042C105.205 150.071 105.205 150.109 105.205 150.156C105.205 150.251 105.204 150.367 105.204 150.487L111.204 150.505C111.204 150.303 111.206 149.999 111.203 149.884L105.205 150.023ZM105.204 147.283L105.204 149.953L111.204 149.953L111.204 147.282L105.204 147.283ZM105.203 141.771C105.203 144.136 105.203 145.86 105.204 147.283L111.204 147.282C111.203 145.859 111.203 144.135 111.203 141.771H105.203ZM105.245 129.189C105.222 134.19 105.203 138.331 105.203 141.771H111.203C111.203 138.348 111.222 134.222 111.245 129.216L105.245 129.189ZM105.324 99.4464C105.324 111.807 105.28 121.518 105.245 129.189L111.245 129.216C111.28 121.544 111.324 111.821 111.324 99.4464H105.324ZM146.06 43.8427C117.866 57.1245 105.324 82.1099 105.324 99.4464H111.324C111.324 84.6083 122.362 61.6391 148.617 49.2706L146.06 43.8427ZM170.024 40.2599C161.837 39.0969 152.943 40.5998 146.06 43.8427L148.617 49.2706C154.471 46.5124 162.185 45.2066 169.18 46.2002L170.024 40.2599ZM191.236 54.9724C187.08 45.5476 178.212 41.4229 170.024 40.2599L169.18 46.2002C176.174 47.1936 182.725 50.5427 185.746 57.3933L191.236 54.9724ZM194.82 78.1916C194.492 69.0174 193.671 60.4966 191.236 54.9724L185.746 57.3933C187.652 61.7157 188.492 69.1131 188.824 78.4062L194.82 78.1916ZM194.895 102.505C195.039 93.5116 195.073 85.2629 194.82 78.1916L188.824 78.4062C189.072 85.3164 189.04 93.4385 188.896 102.408L194.895 102.505ZM191.896 105.457H191.899V99.4565H191.896V105.457ZM188.899 102.457V113.033H194.899V102.457H188.899ZM191.899 116.033H191.899V110.033H191.899V116.033ZM189.07 112.035C189.074 112.026 189.076 112.019 189.078 112.015C189.079 112.011 189.08 112.007 189.08 112.008V112.008C189.08 112.008 189.08 112.008 189.08 112.008C189.08 112.008 189.08 112.008 189.08 112.008C189.08 112.008 189.08 112.008 189.08 112.008C189.08 112.009 189.08 112.009 189.079 112.01C189.079 112.011 189.078 112.013 189.077 112.015C189.076 112.019 189.073 112.026 189.07 112.035L194.728 114.032C194.725 114.04 194.723 114.047 194.721 114.052C194.72 114.056 194.719 114.059 194.719 114.058V114.058C194.719 114.058 194.719 114.058 194.719 114.058C194.719 114.058 194.719 114.058 194.719 114.058C194.719 114.058 194.719 114.058 194.719 114.058C194.719 114.058 194.719 114.057 194.719 114.057C194.72 114.056 194.72 114.054 194.721 114.052C194.723 114.047 194.725 114.04 194.728 114.031L189.07 112.035ZM188.899 113.033V113.036H194.899V113.033H188.899ZM191.899 110.036H191.898V116.036H191.899V110.036ZM189.079 112.011C189.104 111.941 189.025 112.16 188.599 112.427C188.208 112.672 187.747 112.809 187.344 112.809V118.809C188.991 118.809 190.542 118.289 191.783 117.513C192.989 116.758 194.161 115.591 194.718 114.062L189.079 112.011ZM187.344 112.809C186.314 112.809 186.006 112.252 185.985 112.181L180.232 113.885C181.126 116.906 184.101 118.809 187.344 118.809V112.809ZM183.108 116.033H183.112V110.033H183.108V116.033ZM186.112 113.033V111.264H180.112V113.033H186.112ZM183.041 114.263L183.045 114.263L183.18 108.264L183.176 108.264L183.041 114.263ZM180.238 110.391C180.236 110.398 180.233 110.406 180.231 110.415L185.986 112.112C185.986 112.112 185.986 112.11 185.987 112.109L180.238 110.391ZM186.112 111.25V108.177H180.112V111.25H186.112ZM185.07 110.45C185.07 110.45 185.07 110.45 185.072 110.448L181.152 105.906C181.15 105.907 181.146 105.911 181.141 105.915L185.07 110.45ZM180.166 95.3086C180.126 99.368 180.084 103.682 180.106 108.197L186.106 108.168C186.084 103.703 186.126 99.4317 186.165 95.3672L180.166 95.3086ZM180.165 95.3374V95.3379H186.165V95.3374H180.165ZM180.104 78.7293C180.279 83.6134 180.226 89.1507 180.166 95.3081L186.165 95.3666C186.225 89.2473 186.281 83.5628 186.1 78.5147L180.104 78.7293ZM179.233 67.2636C179.64 70.2417 179.937 74.0503 180.104 78.7293L186.1 78.5147C185.929 73.7193 185.622 69.6957 185.178 66.4505L179.233 67.2636ZM177.785 61.0282C178.312 62.2238 178.821 64.2479 179.233 67.2636L185.178 66.4505C184.743 63.2741 184.146 60.5827 183.275 58.6074L177.785 61.0282ZM167.974 54.9942C173.253 55.7441 176.437 57.971 177.785 61.0282L183.275 58.6074C180.804 53.0038 175.333 49.9792 168.818 49.0538L167.974 54.9942ZM152.282 57.3282C156.655 55.2684 162.68 54.2422 167.974 54.9942L168.818 49.0538C162.333 48.1325 155.127 49.3556 149.725 51.9004L152.282 57.3282ZM120.268 99.4412C120.271 88.319 128.88 68.3528 152.282 57.3282L149.725 51.9004C124.345 63.857 114.271 85.862 114.268 99.4397L120.268 99.4412ZM120.243 118.59C120.212 113.16 120.174 106.453 120.268 99.4809L114.268 99.4C114.173 106.438 114.212 113.199 114.243 118.624L120.243 118.59ZM120.268 124.68C120.268 122.927 120.256 120.868 120.243 118.59L114.243 118.624C114.256 120.907 114.268 122.948 114.268 124.68H120.268ZM120.097 135.324C120.177 132.248 120.268 128.713 120.268 124.68H114.268C114.268 128.626 114.179 132.091 114.099 135.169L120.097 135.324ZM119.981 141.739C119.981 139.86 120.035 137.748 120.097 135.324L114.099 135.169C114.037 137.572 113.981 139.767 113.981 141.739H119.981ZM119.988 144.173C119.984 143.404 119.981 142.593 119.981 141.739H113.981C113.981 142.608 113.984 143.431 113.988 144.207L119.988 144.173ZM116.995 141.19H116.988V147.19H116.995V141.19ZM119.995 145.179V144.19H113.995V145.179H119.995ZM119.999 145.775L119.995 145.158L113.995 145.2L113.999 145.818L119.999 145.775ZM119.999 145.759L119.999 145.759L113.999 145.834L113.999 145.834L119.999 145.759ZM119.994 150.549C120.024 149.236 120.012 147.625 119.999 145.775L113.999 145.818C114.013 147.701 114.023 149.209 113.995 150.411L119.994 150.549ZM119.995 154.77V150.48H113.995V154.77H119.995ZM116.978 157.77L116.986 157.77L117.003 151.77L116.995 151.77L116.978 157.77ZM112.567 161.209C116.04 161.209 119.986 158.977 119.986 154.77H113.986C113.986 154.672 114.051 154.709 113.871 154.85C113.675 155.004 113.245 155.209 112.567 155.209V161.209ZM105.204 154.788C105.229 158.914 109.026 161.209 112.567 161.209V155.209C111.901 155.209 111.498 155.008 111.322 154.866C111.235 154.797 111.207 154.747 111.202 154.738C111.199 154.733 111.2 154.734 111.202 154.74C111.203 154.742 111.203 154.745 111.203 154.748C111.204 154.75 111.204 154.752 111.204 154.752L105.204 154.788Z" fill="#69797F"/>
<path fill-rule="evenodd" clip-rule="evenodd" d="M182.785 90.2747L116.422 129.022V138.286L183.208 99.2912H182.785V90.2747ZM189.87 99.2912H191.572V91.0019L224.221 110.33C225.441 111.053 226.187 112.367 226.183 113.784C226.179 115.202 225.424 116.512 224.2 117.227L115.615 180.626C114.362 181.358 112.81 181.353 111.561 180.614L75.9535 159.534C74.7335 158.812 73.9869 157.498 73.9912 156.08C73.9955 154.662 74.75 153.353 75.9744 152.638L107.635 134.152V143.279H107.869L85.8835 156.116L113.612 172.531L214.291 113.749L189.87 99.2912Z" fill="#69797F"/>
<path d="M77.1733 233.395L77.9368 156.146L113.767 177.062L113.058 254.038L77.1733 233.395Z" stroke="#69797F" stroke-width="7" stroke-linejoin="round"/>
<path d="M113.112 254.056L113.657 177.062L222.237 113.827V191.038L113.112 254.056Z" stroke="#69797F" stroke-width="8" stroke-linejoin="round"/>
<path d="M106.552 179.92L84.2116 167.39C83.5613 167.025 82.7549 167.475 82.7233 168.22L82.672 169.431C82.6561 169.808 82.8536 170.161 83.1829 170.346L105.574 182.873C106.241 183.246 107.062 182.764 107.062 182V180.793C107.062 180.431 106.867 180.097 106.552 179.92Z" fill="#69797F" stroke="#69797F" stroke-width="2" stroke-linejoin="round"/>
<path d="M106.552 188.394L84.2116 175.864C83.5613 175.499 82.7549 175.949 82.7233 176.694L82.672 177.905C82.6561 178.281 82.8536 178.635 83.1829 178.82L105.574 191.347C106.241 191.72 107.062 191.238 107.062 190.474V189.267C107.062 188.905 106.867 188.571 106.552 188.394Z" fill="#69797F" stroke="#69797F" stroke-width="2" stroke-linejoin="round"/>
<path d="M106.552 196.868L84.2116 184.338C83.5613 183.973 82.7549 184.423 82.7233 185.168L82.672 186.379C82.6561 186.756 82.8536 187.109 83.1829 187.294L105.574 199.821C106.241 200.194 107.062 199.712 107.062 198.948V197.741C107.062 197.379 106.867 197.045 106.552 196.868Z" fill="#69797F" stroke="#69797F" stroke-width="2" stroke-linejoin="round"/>
<path d="M106.552 205.342L84.2116 192.812C83.5613 192.447 82.7549 192.897 82.7233 193.642L82.672 194.853C82.6561 195.229 82.8536 195.583 83.1829 195.768L105.574 208.295C106.241 208.668 107.062 208.186 107.062 207.422V206.215C107.062 205.853 106.867 205.519 106.552 205.342Z" fill="#69797F" stroke="#69797F" stroke-width="2" stroke-linejoin="round"/>
<path d="M106.552 213.816L84.2116 201.286C83.5613 200.921 82.7549 201.371 82.7233 202.116L82.672 203.327C82.6561 203.704 82.8536 204.057 83.1829 204.242L105.574 216.769C106.241 217.142 107.062 216.66 107.062 215.896V214.689C107.062 214.327 106.867 213.993 106.552 213.816Z" fill="#69797F" stroke="#69797F" stroke-width="2" stroke-linejoin="round"/>
<path d="M106.552 222.29L84.2116 209.76C83.5613 209.395 82.7549 209.845 82.7233 210.59L82.672 211.801C82.6561 212.177 82.8536 212.531 83.1829 212.716L105.574 225.243C106.241 225.616 107.062 225.134 107.062 224.37V223.163C107.062 222.801 106.867 222.467 106.552 222.29Z" fill="#69797F" stroke="#69797F" stroke-width="2" stroke-linejoin="round"/>
<path d="M106.677 230.764L84.3366 218.234C83.6863 217.869 82.8799 218.319 82.8483 219.064L82.797 220.275C82.7811 220.652 82.9786 221.005 83.3079 221.19L105.699 233.717C106.366 234.09 107.187 233.608 107.187 232.844V231.637C107.187 231.275 106.992 230.941 106.677 230.764Z" fill="#69797F" stroke="#69797F" stroke-width="2" stroke-linejoin="round"/>
<path d="M106.677 239.238L84.3366 226.708C83.6863 226.343 82.8799 226.793 82.8483 227.538L82.797 228.749C82.7811 229.125 82.9786 229.479 83.3079 229.664L105.699 242.191C106.366 242.564 107.187 242.082 107.187 241.318V240.111C107.187 239.749 106.992 239.415 106.677 239.238Z" fill="#69797F" stroke="#69797F" stroke-width="2" stroke-linejoin="round"/>
<path d="M125.263 208.04L133.385 205.946L127.759 217.08L127.294 217.999L127.911 218.108L132.758 218.959L133.307 219.056L133.656 218.219L138.148 207.449L142.776 213.265L143.14 213.723L143.695 212.959L148.476 206.388L149.06 205.584L148.601 205.212L143.079 200.741L151.269 193.413L151.934 192.819L151.705 192.192L149.841 187.099L149.611 186.471L148.974 187.145L141.351 195.215L141.907 184.516L141.95 183.683L141.252 184.086L135.297 187.524L134.599 187.927L134.656 188.701L135.367 198.447L127.425 199.263L126.786 199.329L126.568 200.21L124.813 207.328L124.595 208.212L125.263 208.04Z" fill="#69797F" stroke="#69797F" stroke-width="1.5"/>
<path d="M155.541 190.112L163.662 188.018L158.036 199.153L157.572 200.072L158.188 200.18L163.035 201.032L163.585 201.128L163.933 200.292L168.426 189.522L173.053 195.338L173.417 195.795L173.973 195.032L178.753 188.46L179.338 187.657L178.878 187.285L173.357 182.814L181.547 175.486L182.211 174.891L181.982 174.265L180.118 169.171L179.889 168.544L179.252 169.218L171.629 177.288L172.184 166.589L172.228 165.755L171.529 166.158L165.574 169.597L164.877 169.999L164.933 170.774L165.645 180.52L157.703 181.336L157.063 181.402L156.846 182.283L155.091 189.4L154.873 190.285L155.541 190.112Z" fill="#69797F" stroke="#69797F" stroke-width="1.5"/>
<path d="M185.818 172.904L193.939 170.81L188.313 181.944L187.849 182.863L188.466 182.972L193.312 183.823L193.862 183.92L194.211 183.083L198.703 172.313L203.33 178.129L203.694 178.587L204.25 177.823L209.031 171.252L209.615 170.448L209.156 170.076L203.634 165.605L211.824 158.277L212.489 157.683L212.259 157.056L210.396 151.963L210.166 151.335L209.529 152.009L201.906 160.079L202.462 149.38L202.505 148.547L201.807 148.95L195.851 152.388L195.154 152.791L195.211 153.565L195.922 163.311L187.98 164.127L187.34 164.193L187.123 165.074L185.368 172.192L185.15 173.076L185.818 172.904Z" fill="#69797F" stroke="#69797F" stroke-width="1.5"/>
</mask>
<g mask="url(#mask0)">
<rect x="25.875" y="28.1692" width="247.81" height="247.81" fill="#AFC7CF"/>
</g>
</svg>
