<svg width="275" height="65" viewBox="0 0 275 65" fill="none" xmlns="http://www.w3.org/2000/svg">
<path d="M57.1252 33.0673C59.1966 34.2626 61.2686 35.4584 63.3422 36.656C64.8942 37.5613 65.3145 39.5337 64.5062 41.0857C63.6817 42.6377 61.5477 43.0904 60.0765 42.2497C59.5123 41.933 58.9542 41.6102 58.3985 41.2888C58.0465 41.0852 57.6954 40.8821 57.3443 40.6815C56.1906 40.0152 55.0374 39.3495 53.8845 38.6841V45.8226C53.8845 47.6332 52.4134 48.9751 50.6512 49.0559C48.9052 49.1368 47.4178 47.5201 47.4178 45.8226V38.6687C45.3602 39.856 43.302 41.044 41.2421 42.2335C39.674 43.1389 37.7663 42.5569 36.8124 41.0695C35.8747 39.5983 36.5053 37.4805 37.9764 36.6398C38.5404 36.3232 39.0984 36.0005 39.6539 35.6792L39.6546 35.6788C40.0066 35.4752 40.3576 35.2722 40.7086 35.0716C41.8613 34.4059 43.0136 33.7407 44.1654 33.0759C42.098 31.8829 40.0299 30.6893 37.9603 29.4941C36.3921 28.5887 35.9879 26.6002 36.7962 25.0643C37.6207 23.5123 39.7548 23.0596 41.226 23.9003C41.79 24.217 42.3481 24.5397 42.9037 24.8611C43.2558 25.0647 43.607 25.2678 43.9582 25.4685C45.1118 26.1348 46.265 26.8005 47.4178 27.4659V20.2951C47.4178 18.4844 48.9052 17.1426 50.6512 17.0617C52.3972 16.9809 53.8845 18.5976 53.8845 20.2951V27.4677C55.953 26.2742 58.022 25.08 60.0927 23.8842C61.6609 22.9788 63.5685 23.577 64.5224 25.0482C65.4601 26.5194 64.8296 28.6372 63.3584 29.4779C62.7942 29.7946 62.2361 30.1174 61.6803 30.4389C61.3283 30.6424 60.9772 30.8455 60.6262 31.0461C59.4587 31.7203 58.2918 32.394 57.1252 33.0673Z" fill="#BED6DE"/>
<path d="M145.36 33.0673C147.431 34.2626 149.503 35.4584 151.577 36.656C153.129 37.5613 153.549 39.5337 152.741 41.0857C151.916 42.6377 149.782 43.0904 148.311 42.2497C147.747 41.933 147.189 41.6102 146.633 41.2888C146.281 41.0852 145.93 40.8821 145.579 40.6815C144.425 40.0152 143.272 39.3495 142.119 38.6841V45.8226C142.119 47.6332 140.648 48.9751 138.886 49.0559C137.14 49.1368 135.652 47.5201 135.652 45.8226V38.6687C133.595 39.856 131.536 41.044 129.477 42.2335C127.908 43.1389 126.001 42.5569 125.047 41.0695C124.109 39.5983 124.74 37.4805 126.211 36.6398C126.775 36.3232 127.333 36.0005 127.888 35.6792L127.889 35.6788C128.241 35.4752 128.592 35.2722 128.943 35.0716C130.096 34.4059 131.248 33.7407 132.4 33.0759C130.332 31.8829 128.264 30.6893 126.195 29.4941C124.626 28.5887 124.222 26.6002 125.031 25.0643C125.855 23.5123 127.989 23.0596 129.46 23.9003C130.024 24.217 130.582 24.5397 131.138 24.8611C131.49 25.0647 131.841 25.2678 132.193 25.4685C133.346 26.1348 134.499 26.8005 135.652 27.4659V20.2951C135.652 18.4844 137.14 17.1426 138.886 17.0617C140.632 16.9809 142.119 18.5976 142.119 20.2951V27.4677C144.187 26.2742 146.256 25.08 148.327 23.8842C149.895 22.9788 151.803 23.577 152.757 25.0482C153.694 26.5194 153.064 28.6372 151.593 29.4779C151.029 29.7946 150.47 30.1174 149.915 30.4389C149.563 30.6424 149.212 30.8455 148.861 31.0461C147.693 31.7203 146.526 32.394 145.36 33.0673Z" fill="#BED6DE"/>
<path d="M101.242 33.0673C103.314 34.2626 105.386 35.4584 107.459 36.656C109.011 37.5613 109.432 39.5337 108.623 41.0857C107.799 42.6377 105.665 43.0904 104.194 42.2497C103.63 41.933 103.071 41.6102 102.516 41.2888C102.164 41.0852 101.813 40.8821 101.461 40.6815C100.308 40.0152 99.1546 39.3495 98.0017 38.6841V45.8226C98.0017 47.6332 96.5305 48.9751 94.7684 49.0559C93.0223 49.1368 91.535 47.5201 91.535 45.8226V38.6687C89.4774 39.856 87.4192 41.044 85.3593 42.2335C83.7911 43.1389 81.8835 42.5569 80.9296 41.0695C79.9919 39.5983 80.6224 37.4805 82.0936 36.6398C82.6576 36.3232 83.2156 36.0005 83.7711 35.6792L83.7718 35.6788C84.1237 35.4752 84.4748 35.2722 84.8258 35.0716C85.9785 34.4059 87.1307 33.7407 88.2826 33.0759C86.2152 31.8829 84.1471 30.6893 82.0774 29.4941C80.5093 28.5887 80.1051 26.6002 80.9134 25.0643C81.7379 23.5123 83.872 23.0596 85.3431 23.9003C85.9072 24.217 86.4652 24.5397 87.0209 24.8611C87.373 25.0647 87.7242 25.2678 88.0753 25.4685C89.229 26.1348 90.3822 26.8005 91.535 27.4659V20.2951C91.535 18.4844 93.0223 17.1426 94.7684 17.0617C96.5144 16.9809 98.0017 18.5976 98.0017 20.2951V27.4677C100.07 26.2742 102.139 25.08 104.21 23.8842C105.778 22.9788 107.686 23.577 108.64 25.0482C109.577 26.5194 108.947 28.6372 107.476 29.4779C106.911 29.7946 106.353 30.1174 105.797 30.4389C105.445 30.6424 105.094 30.8455 104.743 31.0461C103.576 31.7203 102.409 32.394 101.242 33.0673Z" fill="#BED6DE"/>
<path d="M189.477 33.0673C191.548 34.2626 193.62 35.4584 195.694 36.656C197.246 37.5613 197.666 39.5337 196.858 41.0857C196.033 42.6377 193.899 43.0904 192.428 42.2497C191.864 41.933 191.306 41.6102 190.75 41.2888C190.398 41.0852 190.047 40.8821 189.696 40.6815C188.542 40.0152 187.389 39.3495 186.236 38.6841V45.8226C186.236 47.6332 184.765 48.9751 183.003 49.0559C181.257 49.1368 179.769 47.5201 179.769 45.8226V38.6687C177.712 39.856 175.654 41.044 173.594 42.2335C172.026 43.1389 170.118 42.5569 169.164 41.0695C168.226 39.5983 168.857 37.4805 170.328 36.6398C170.892 36.3232 171.45 36.0005 172.006 35.6792L172.006 35.6788C172.358 35.4752 172.709 35.2722 173.06 35.0716C174.213 34.4059 175.365 33.7407 176.517 33.0759C174.45 31.8829 172.382 30.6893 170.312 29.4941C168.744 28.5887 168.339 26.6002 169.148 25.0643C169.972 23.5123 172.106 23.0596 173.578 23.9003C174.142 24.217 174.7 24.5397 175.255 24.8611C175.607 25.0647 175.959 25.2678 176.31 25.4685C177.463 26.1348 178.617 26.8005 179.769 27.4659V20.2951C179.769 18.4844 181.257 17.1426 183.003 17.0617C184.749 16.9809 186.236 18.5976 186.236 20.2951V27.4677C188.305 26.2742 190.374 25.08 192.444 23.8842C194.012 22.9788 195.92 23.577 196.874 25.0482C197.812 26.5194 197.181 28.6372 195.71 29.4779C195.146 29.7946 194.588 30.1174 194.032 30.4389C193.68 30.6424 193.329 30.8455 192.978 31.0461C191.81 31.7203 190.643 32.394 189.477 33.0673Z" fill="#BED6DE"/>
<rect x="209.455" y="43.0588" width="26" height="6" rx="3" fill="#BED6DE"/>
<rect x="2" y="2.5" width="271" height="60" rx="30" stroke="#BED6DE" stroke-width="4"/>
</svg>
